#!OML:ASF E:\inclinewalkrobotboard\Project 1\Capture day 1\Session 1\subject1.ASF
:FULLY-SPECIFIED
:DEGREES
157
root 7.66519 16.4489 33.1468 -168.083 2.83547 177.836
lowerback 1.09698 3.23794 -4.43032
upperback 2.66048 4.39763 0.732835
thorax 1.73759 2.14329 3.23482
lowerneck -6.29272 -0.356107 -3.47558
upperneck 22.4621 -2.37014 4.34008
head 8.04074 -1.53062 1.75088
rclavicle 1.21259e-014 -3.18055e-014
rhumerus -21.3447 -13.6017 -86.3977
rradius 31.0012
rwrist 4.28987
rhand -18.4932 -34.7185
rfingers 7.12502
rthumb 7.79429 -64.5549
lclavicle 1.21259e-014 -3.18055e-014
lhumerus -38.2495 23.1157 72.1541
lradius 12.3545
lwrist -40.8587
lhand -23.7428 -23.6595
lfingers 7.12502
lthumb 2.72571 6.30278
rfemur -2.30188 2.64028 21.2447
rtibia 12.529
rfoot -20.3315 1.90542
rtoes -12.2983
lfemur -66.4151 -3.73271 -17.7227
ltibia 58.1055
lfoot -18.5736 -2.68065
ltoes 0.655592
158
root 7.64931 16.4617 32.9792 -168.108 3.0627 177.907
lowerback 1.74523 3.4575 -4.29563
upperback 2.87957 4.68641 0.635616
thorax 1.5944 2.29975 3.02232
lowerneck -6.31424 -0.531356 -3.58596
upperneck 21.9803 -2.51891 4.41346
head 7.89275 -1.57634 1.78207
rclavicle 2.10712e-014 7.95139e-016
rhumerus -21.2696 -13.417 -86.6832
rradius 32.139
rwrist 3.69481
rhand -17.0681 -35.7766
rfingers 7.12502
rthumb 9.16966 -65.5573
lclavicle 2.10712e-014 7.95139e-016
lhumerus -37.9135 22.5506 72.5149
lradius 12.6409
lwrist -39.954
lhand -23.4484 -23.8089
lfingers 7.12502
lthumb 3.01011 6.14961
rfemur -1.76698 2.71325 21.1594
rtibia 12.6806
rfoot -19.2669 1.92428
rtoes -15.1689
lfemur -66.9525 -2.87005 -18.4231
ltibia 58.3706
lfoot -18.0496 -2.05177
ltoes 1.06213
159
root 7.63449 16.4873 32.8102 -168.15 3.21021 178.104
lowerback 2.58278 3.57612 -4.05557
upperback 3.03908 4.83345 0.593466
thorax 1.30145 2.3916 2.79156
lowerneck -6.21421 -0.636601 -3.79343
upperneck 21.5534 -2.56051 4.39452
head 7.73704 -1.59564 1.80871
rclavicle 3.18055e-015 1.82882e-014
rhumerus -21.1396 -12.8816 -87.0375
rradius 33.0071
rwrist 2.80928
rhand -16.4447 -36.5628
rfingers 7.12502
rthumb 9.77115 -66.3161
lclavicle 3.18055e-015 1.82882e-014
lhumerus -37.6241 21.6694 73.1091
lradius 13.0961
lwrist -38.2558
lhand -23.4105 -23.8305
lfingers 7.12502
lthumb 3.0467 6.12749
rfemur -1.17951 2.71731 21.1785
rtibia 12.8083
rfoot -18.161 2.07801
rtoes -17.9814
lfemur -67.0687 -2.32822 -18.648
ltibia 57.6007
lfoot -16.894 -1.90166
ltoes 1.40273
160
root 7.61102 16.5175 32.6221 -167.804 3.46723 178.361
lowerback 2.81639 3.70805 -3.8218
upperback 3.1348 5.01446 0.582409
thorax 1.27588 2.48963 2.63338
lowerneck -5.93857 -0.745429 -3.85784
upperneck 21.0781 -2.60413 4.19814
head 7.5315 -1.6251 1.7533
rclavicle 5.02925e-014 -1.43125e-014
rhumerus -20.8827 -12.0873 -87.3303
rradius 33.6423
rwrist 1.74986
rhand -16.284 -36.6954
rfingers 7.12502
rthumb 9.92615 -66.4414
lclavicle 5.02925e-014 -1.43125e-014
lhumerus -37.2102 20.6125 73.9549
lradius 13.5384
lwrist -36.2367
lhand -23.6133 -23.7181
lfingers 7.12502
lthumb 2.85077 6.24255
rfemur -1.00037 2.71777 21.135
rtibia 12.9023
rfoot -16.7044 2.49294
rtoes -21.0562
lfemur -67.2714 -2.22882 -18.266
ltibia 56.1267
lfoot -15.5537 -1.8066
ltoes 1.10603
161
root 7.57788 16.5603 32.4291 -167.376 3.38074 178.474
lowerback 3.00525 3.69968 -3.60626
upperback 3.21309 5.0097 0.539513
thorax 1.2729 2.49412 2.46058
lowerneck -5.83603 -0.762468 -3.63467
upperneck 20.7383 -2.52999 3.83561
head 7.39263 -1.58921 1.60435
rclavicle -1.51076e-014 1.03368e-014
rhumerus -20.4726 -11.0956 -87.5776
rradius 34.1747
rwrist 1.02922
rhand -16.3526 -36.1706
rfingers 7.12502
rthumb 9.85997 -65.9198
lclavicle -1.51076e-014 1.03368e-014
lhumerus -36.7302 20.0459 74.5719
lradius 13.8837
lwrist -34.932
lhand -24.065 -24.0288
lfingers 7.12502
lthumb 2.41454 5.93726
rfemur -0.880752 2.38591 20.9256
rtibia 12.881
rfoot -15.0299 2.78825
rtoes -24.7192
lfemur -67.3279 -3.10957 -17.4851
ltibia 54.4865
lfoot -14.6504 -1.76012
ltoes 0.771471
162
root 7.55156 16.6136 32.2008 -167.009 4.24988 178.748
lowerback 2.91323 3.99374 -3.62526
upperback 3.34428 5.41655 0.454224
thorax 1.43888 2.69602 2.38492
lowerneck -3.15529 -1.3843 -5.5014
upperneck 18.6356 -3.54003 5.77914
head 6.33919 -2.08369 2.49288
rclavicle 6.57977e-014 3.97569e-016
rhumerus -19.8797 -10.3374 -87.8299
rradius 34.3075
rwrist 1.18681
rhand -17.0515 -35.1789
rfingers 7.12502
rthumb 9.18562 -64.9588
lclavicle 6.57977e-014 3.97569e-016
lhumerus -36.3977 19.9467 74.777
lradius 14.2752
lwrist -34.4793
lhand -24.7417 -24.6534
lfingers 7.12502
lthumb 1.76103 5.31909
rfemur -0.709206 2.64612 20.8111
rtibia 12.989
rfoot -13.2581 3.4513
rtoes -27.3931
lfemur -66.7349 -3.24171 -16.3761
ltibia 52.6227
lfoot -14.6702 -1.54695
ltoes 0.885752
